#!Matlab matrix to amc conversion
:FULLY-SPECIFIED
:DEGREES
1
root 0.000000 0.000000 0.000000 15.058115 -2.470233 1.798338
lowerback -3.559508 0.964423 -4.428967
upperback -0.434393 1.432023 1.652992
thorax 1.352371 0.650710 4.343249
lowerneck -8.133352 -3.360559 -12.972760
upperneck 12.475198 -4.407156 11.739108
head 5.545984 -1.885821 5.474064
rclavicle 0.000000 0.000000
rhumerus -35.781755 2.767166 -72.670921
rradius 23.124977
rwrist -6.628264
rhand -28.856200 -18.800500
rfingers 7.125020
rthumb -2.212790 -48.768800
lclavicle 0.000000 0.000000
lhumerus -34.989756 -12.697818 83.169922
lradius 44.545328
lwrist 20.162777
lhand -19.668800 -28.799300
lfingers 7.125020
lthumb 6.659510 1.076010
rfemur -30.203889 -4.359395 28.685688
rtibia 40.341754
rfoot -19.657086 4.634090
rtoes -20.766800
lfemur -32.014912 -3.735025 -17.959837
ltibia 66.444137
lfoot -11.587924 9.833707
ltoes -22.051700
2
root 0.113540 0.102651 0.675225 14.927024 -4.642051 2.521041
lowerback -3.220687 1.136818 -4.846575
upperback 0.763882 1.640871 1.777244
thorax 2.370704 0.741246 4.700317
lowerneck -8.687710 -3.296938 -11.784475
upperneck 13.570576 -4.519599 11.197149
head 5.958393 -1.916491 5.064757
rclavicle 0.000000 0.000000
rhumerus -36.193573 5.745942 -75.183522
rradius 28.420750
rwrist -14.569829
rhand -28.856200 -18.800500
rfingers 7.125020
rthumb -2.212790 -48.768800
lclavicle 0.000000 0.000000
lhumerus -35.478185 -12.541272 84.347905
lradius 40.818027
lwrist 14.691487
lhand -19.668800 -28.799300
lfingers 7.125020
lthumb 6.659510 1.076010
rfemur -31.238143 -3.596328 27.886651
rtibia 42.051656
rfoot -18.085815 7.490219
rtoes -20.766800
lfemur -31.095935 -4.406713 -18.136097
ltibia 70.643823
lfoot -14.920717 12.666012
ltoes -22.051700
3
root 0.213483 0.206605 1.318901 14.118158 -5.319868 1.594025
lowerback -2.884578 1.045864 -4.167005
upperback 1.629334 1.453068 2.466474
thorax 3.126528 0.637104 5.005938
lowerneck -11.870629 -3.355716 -11.277020
upperneck 13.907422 -4.347851 11.075518
head 6.562408 -1.745283 4.961136
rclavicle 0.000000 0.000000
rhumerus -34.803902 10.757345 -77.114316
rradius 31.873596
rwrist -19.831037
rhand -28.856200 -18.800500
rfingers 7.125020
rthumb -2.212790 -48.768800
lclavicle 0.000000 0.000000
lhumerus -36.612630 -13.434196 86.887058
lradius 36.419953
lwrist 11.159688
lhand -19.668800 -28.799300
lfingers 7.125020
lthumb 6.659510 1.076010
rfemur -29.284721 -1.185869 28.138113
rtibia 41.253798
rfoot -18.579448 7.445492
rtoes -20.766800
lfemur -33.098203 -2.404115 -18.148864
ltibia 71.724628
lfoot -16.210400 14.108401
ltoes -22.051700
4
root 0.293263 0.315197 1.933384 12.722171 -4.455221 0.027968
lowerback -2.320097 0.719077 -3.267480
upperback 1.945064 0.961186 3.297543
thorax 3.216869 0.389310 5.324133
lowerneck -16.291313 -3.496625 -11.339476
upperneck 14.028825 -4.075134 11.408597
head 7.336767 -1.486793 5.137693
rclavicle 0.000000 0.000000
rhumerus -32.851157 14.396627 -77.548266
rradius 32.692629
rwrist -21.072010
rhand -28.856200 -18.800500
rfingers 7.125020
rthumb -2.212790 -48.768800
lclavicle 0.000000 0.000000
lhumerus -37.434191 -15.078714 89.248059
lradius 32.625529
lwrist 9.864483
lhand -19.668800 -28.799300
lfingers 7.125020
lthumb 6.659510 1.076010
rfemur -26.146743 2.282069 28.394698
rtibia 39.468509
rfoot -20.823938 5.130564
rtoes -20.766800
lfemur -35.851536 1.163787 -18.142012
ltibia 72.135980
lfoot -15.422978 15.343342
ltoes -22.051700
5
root 0.354950 0.417851 2.525096 10.584369 -2.727506 -2.111764
lowerback -1.732929 0.433373 -1.766249
upperback 1.505187 0.525729 4.036263
thorax 2.511817 0.191035 5.208133
lowerneck -20.891287 -3.595365 -11.724957
upperneck 14.683954 -3.657959 11.723503
head 8.353065 -1.190432 5.413170
rclavicle 0.000000 -0.000000
rhumerus -31.072308 13.931052 -76.178020
rradius 29.854481
rwrist -17.118467
rhand -28.856200 -18.800500
rfingers 7.125020
rthumb -2.212790 -48.768800
lclavicle 0.000000 -0.000000
lhumerus -38.086903 -18.175516 91.167279
lradius 30.341559
lwrist 8.900125
lhand -19.668800 -28.799300
lfingers 7.125020
lthumb 6.659510 1.076010
rfemur -22.228093 6.014356 28.692463
rtibia 37.371872
rfoot -23.387334 1.210038
rtoes -20.766800
lfemur -38.120262 6.656699 -18.212483
ltibia 73.719918
lfoot -14.300112 16.516831
ltoes -22.051700
6
root 0.396102 0.485322 3.078405 6.822801 -0.930516 -4.767901
lowerback -1.998863 0.342427 0.909861
upperback 0.246801 0.324645 4.504636
thorax 1.414698 0.140407 4.161483
lowerneck -25.159149 -3.549505 -12.213789
upperneck 16.862770 -2.932101 11.229706
head 9.847678 -0.887317 5.536881
rclavicle -0.000000 0.000000
rhumerus -30.310860 7.127961 -72.923415
rradius 20.935094
rwrist -5.395207
rhand -28.856200 -18.800500
rfingers 7.125020
rthumb -2.212790 -48.768800
lclavicle -0.000000 0.000000
lhumerus -38.485601 -24.542212 93.367846
lradius 30.827398
lwrist 6.219346
lhand -19.668800 -28.799300
lfingers 7.125020
lthumb 6.659510 1.076010
rfemur -16.759944 7.290492 28.902274
rtibia 34.586361
rfoot -23.399987 -1.370701
rtoes -20.766800
lfemur -37.423150 14.693641 -17.923361
ltibia 78.707396
lfoot -15.779479 17.596065
ltoes -22.051700
7
root 0.391545 0.469274 3.519186 2.301219 0.655073 -6.118263
lowerback -3.531060 -0.132358 3.544545
upperback -1.111779 -0.380651 4.426715
thorax 0.920066 -0.160827 2.557954
lowerneck -28.599053 -3.551301 -12.574010
upperneck 19.989876 -2.434009 10.586596
head 11.605641 -0.729762 5.628865
rclavicle -0.000000 0.000000
rhumerus -31.434387 -1.546390 -68.817505
rradius 10.006858
rwrist 9.501026
rhand -28.856200 -18.800500
rfingers 7.125020
rthumb -2.212790 -48.768800
lclavicle -0.000000 0.000000
lhumerus -35.790931 -33.098812 96.495799
lradius 31.470612
lwrist 1.244926
lhand -19.668800 -28.799300
lfingers 7.125020
lthumb 6.659510 1.076010
rfemur -10.388239 3.102029 27.624293
rtibia 29.859056
rfoot -18.792908 1.539922
rtoes -20.766800
lfemur -31.555215 21.320813 -16.730371
ltibia 84.152197
lfoot -20.159733 19.025860
ltoes -22.051700
8
root 0.323675 0.358284 3.814715 0.270720 1.533344 -4.989659
lowerback -5.171670 -1.108233 4.027691
upperback -1.826383 -1.680218 3.812742
thorax 1.153997 -0.799633 1.607641
lowerneck -29.932977 -3.579172 -12.852140
upperneck 20.826363 -2.497821 11.425940
head 12.243212 -0.655236 6.084184
rclavicle -0.000000 0.000000
rhumerus -33.233864 -2.725775 -67.201010
rradius 6.325700
rwrist 17.038706
rhand -28.856200 -18.800500
rfingers 7.125020
rthumb -2.212790 -48.768800
lclavicle -0.000000 0.000000
lhumerus -28.734749 -32.337159 97.069144
lradius 28.174557
lwrist -4.199760
lhand -19.668800 -28.799300
lfingers 7.125020
lthumb 6.659510 1.076010
rfemur -7.442976 -2.594400 25.254566
rtibia 25.517524
rfoot -13.355543 6.706556
rtoes -20.766800
lfemur -24.383509 22.336946 -16.325916
ltibia 79.891110
lfoot -23.451574 20.430633
ltoes -22.051700
9
root 0.230427 0.205792 4.055922 0.890632 1.705465 -3.092466
lowerback -6.090282 -1.893973 3.030746
upperback -2.134370 -2.684081 3.032604
thorax 1.388113 -1.321302 1.355759
lowerneck -29.110247 -3.439983 -12.986860
upperneck 19.570126 -2.646865 12.823648
head 11.689453 -0.555297 6.578961
rclavicle -0.000000 0.000000
rhumerus -36.104237 2.284241 -69.624012
rradius 8.291838
rwrist 16.208458
rhand -28.856200 -18.800500
rfingers 7.125020
rthumb -2.212790 -48.768800
lclavicle -0.000000 0.000000
lhumerus -22.074327 -16.284609 91.873579
lradius 23.570157
lwrist -11.453268
lhand -19.668800 -28.799300
lfingers 7.125020
lthumb 6.659510 1.076010
rfemur -8.697632 -6.309699 24.067099
rtibia 24.628798
rfoot -11.264516 9.308464
rtoes -20.766800
lfemur -21.197844 20.203689 -17.843754
ltibia 70.570372
lfoot -24.227639 19.249142
ltoes -22.051700
10
root 0.140361 0.077636 4.326935 2.645851 1.697073 -1.216030
lowerback -6.223401 -2.277723 1.758539
upperback -1.777270 -3.155026 2.237638
thorax 1.862388 -1.592226 1.275096
lowerneck -27.116401 -3.336799 -12.584664
upperneck 17.276843 -2.915479 13.608555
head 10.495902 -0.557862 6.647582
rclavicle -0.000000 0.000000
rhumerus -39.436145 8.461954 -74.145466
rradius 13.202265
rwrist 8.436756
rhand -28.856200 -18.800500
rfingers 7.125020
rthumb -2.212790 -48.768800
lclavicle -0.000000 0.000000
lhumerus -19.951367 9.384384 80.795651
lradius 19.325636
lwrist -24.743345
lhand -19.668800 -28.799300
lfingers 7.125020
lthumb 6.659510 1.076010
rfemur -12.286825 -8.149028 23.758685
rtibia 27.736458
rfoot -12.102112 10.082725
rtoes -20.766800
lfemur -21.532538 16.826645 -20.718178
ltibia 63.604113
lfoot -22.922632 13.901906
ltoes -22.051700
11
root 0.053753 0.028130 4.664370 4.687327 1.609213 0.136208
lowerback -5.822794 -2.195658 0.894645
upperback -0.703280 -3.015292 1.597068
thorax 2.751104 -1.561332 1.145411
lowerneck -24.681332 -3.427276 -11.688330
upperneck 14.533743 -3.428327 13.781383
head 9.061508 -0.732803 6.319922
rclavicle -0.000000 0.000000
rhumerus -41.012759 13.189980 -78.674690
rradius 19.911505
rwrist -2.745026
rhand -28.856200 -18.800500
rfingers 7.125020
rthumb -2.212790 -48.768800
lclavicle -0.000000 0.000000
lhumerus -24.735248 35.588292 64.587977
lradius 16.173170
lwrist -44.580836
lhand -19.668800 -28.799300
lfingers 7.125020
lthumb 6.659510 1.076010
rfemur -16.519953 -9.062970 23.685807
rtibia 34.168681
rfoot -14.983173 10.512267
rtoes -20.766800
lfemur -24.872737 13.523578 -24.111365
ltibia 62.344464
lfoot -20.604068 5.733221
ltoes -22.051700
12
root -0.036288 0.072296 5.046302 6.900424 1.181296 -0.123560
lowerback -5.357816 -1.614124 1.090332
upperback 0.534994 -2.214399 1.500782
thorax 3.741801 -1.191902 0.997903
lowerneck -22.252597 -3.739638 -10.965396
upperneck 11.715423 -4.193470 14.166087
head 7.681623 -1.041389 6.057659
rclavicle -0.000000 0.000000
rhumerus -38.992854 16.562557 -81.623340
rradius 27.506514
rwrist -12.517367
rhand -28.856200 -18.800500
rfingers 7.125020
rthumb -2.212790 -48.768800
lclavicle -0.000000 0.000000
lhumerus -36.188475 53.288042 45.692754
lradius 14.185057
lwrist -65.589160
lhand -19.668800 -28.799300
lfingers 7.125020
lthumb 6.659510 1.076010
rfemur -18.111414 -9.870883 24.220445
rtibia 39.725062
rfoot -19.068114 11.218324
rtoes -20.766800
lfemur -31.768817 11.657506 -26.425886
ltibia 65.041298
lfoot -18.190564 -1.585160
ltoes -22.051700
13
root -0.122875 0.181734 5.421832 9.590885 0.015437 -3.320552
lowerback -5.148843 -0.434339 3.240784
upperback 1.226968 -0.653868 2.313847
thorax 4.340800 -0.427996 0.702960
lowerneck -20.125975 -4.432054 -11.515692
upperneck 8.822829 -5.439765 16.112038
head 6.529622 -1.495402 6.541164
rclavicle 0.000000 0.000000
rhumerus -33.088385 19.776132 -81.574933
rradius 36.488900
rwrist -19.073958
rhand -28.856200 -18.800500
rfingers 7.125020
rthumb -2.212790 -48.768800
lclavicle 0.000000 0.000000
lhumerus -50.945438 56.454632 28.727279
lradius 12.416510
lwrist -77.982392
lhand -19.668800 -28.799300
lfingers 7.125020
lthumb 6.659510 1.076010
rfemur -12.870151 -9.916845 26.409510
rtibia 38.225929
rfoot -22.386615 12.059905
rtoes -20.766800
lfemur -41.951541 11.473992 -25.176918
ltibia 65.105321
lfoot -15.472454 -4.212487
ltoes -22.051700
14
root -0.177550 0.295436 5.761768 12.274609 -1.632044 -8.950708
lowerback -4.722136 1.354365 7.337662
upperback 1.004552 1.578976 3.590227
thorax 4.002573 0.699680 -0.229073
lowerneck -18.460375 -5.861475 -14.612358
upperneck 6.452976 -7.649805 20.753117
head 5.948642 -2.255930 8.371393
rclavicle 0.000000 -0.000000
rhumerus -26.965122 22.379843 -78.404980
rradius 47.835593
rwrist -25.965541
rhand -28.856200 -18.800500
rfingers 7.125020
rthumb -2.212790 -48.768800
lclavicle 0.000000 -0.000000
lhumerus -61.363499 44.533184 21.542462
lradius 9.863974
lwrist -70.349432
lhand -19.668800 -28.799300
lfingers 7.125020
lthumb 6.659510 1.076010
rfemur -1.342874 -7.329949 30.072598
rtibia 29.610953
rfoot -18.655946 11.641310
rtoes -20.766800
lfemur -48.997033 11.220389 -19.145864
ltibia 53.806136
lfoot -11.928007 -0.098525
ltoes -22.051700
